<?xml version="1.0" encoding="UTF-8" standalone="no"?>
<!-- Created with Inkscape (http://www.inkscape.org/) -->

<svg
   width="94.308105mm"
   height="24.153503mm"
   viewBox="0 0 94.308105 24.153503"
   version="1.1"
   id="svg5"
   xml:space="preserve"
   inkscape:version="1.2.2 (b0a84865, 2022-12-01)"
   sodipodi:docname="poster.svg"
   xmlns:inkscape="http://www.inkscape.org/namespaces/inkscape"
   xmlns:sodipodi="http://sodipodi.sourceforge.net/DTD/sodipodi-0.dtd"
   xmlns="http://www.w3.org/2000/svg"
   xmlns:svg="http://www.w3.org/2000/svg"><sodipodi:namedview
     id="namedview7"
     pagecolor="#ffffff"
     bordercolor="#666666"
     borderopacity="1.0"
     inkscape:showpageshadow="2"
     inkscape:pageopacity="0.0"
     inkscape:pagecheckerboard="0"
     inkscape:deskcolor="#d1d1d1"
     inkscape:document-units="mm"
     showgrid="false"
     inkscape:zoom="0.17552289"
     inkscape:cx="256.37682"
     inkscape:cy="-48.426732"
     inkscape:window-width="1704"
     inkscape:window-height="1027"
     inkscape:window-x="12"
     inkscape:window-y="50"
     inkscape:window-maximized="0"
     inkscape:current-layer="layer1" /><defs
     id="defs2" /><g
     inkscape:label="Layer 1"
     inkscape:groupmode="layer"
     id="layer1"
     transform="translate(561.93141,232.91076)"><g
       id="g6366"><path
         d="m -561.88641,-232.74972 h 21.12698 v 23.56909 h -21.12698 z"
         fill="#264980"
         id="path5998"
         style="stroke-width:0.264583" /><g
         fill="#ffffff"
         id="g6004"
         transform="matrix(0.26458334,0,0,0.26458334,-596.13672,-325.68197)"><path
           d="m 129.28,357.06 c 27.75,28.78 55.34,40.43 80.02,49.2 v -6.52 c -15.77,-2.08 -51.41,-19.04 -80.02,-42.68 z m 0,20.04 c 27.75,28.78 55.34,40.43 80.02,49.2 v -6.52 C 193.53,417.7 157.89,400.74 129.28,377.1 Z m 0,20.04 c 28.61,23.64 64.25,40.61 80.02,42.67 v 0.5 h -15.87 c -20.38,-8.37 -42.21,-20.41 -64.15,-43.17 z"
           id="path6000" /><path
           d="m 129.28,434.51 c 27.75,-28.78 55.34,-40.43 80.02,-49.2 v 6.52 c -15.77,2.07 -51.41,19.03 -80.02,42.68 z m 0,-20.05 c 27.75,-28.78 55.34,-40.43 80.02,-49.19 v 6.52 c -15.77,2.07 -51.41,19.03 -80.02,42.67 z m 0,-20.04 c 28.61,-23.64 64.25,-40.6 80.02,-42.67 v -0.5 h -15.87 c -20.38,8.37 -42.21,20.41 -64.15,43.17 z"
           id="path6002" /></g><path
         d="m -518.57147,-212.02226 c -1.24883,-0.62442 -1.46844,-0.92869 -1.46844,-1.30175 0,-0.42598 0.38894,-0.82285 1.01865,-0.82285 0.6694,0 1.2409,0.53975 1.35467,1.20914 h 0.18256 c -0.0159,-0.22754 -0.0159,-1.16416 0,-1.39171 -0.12171,0.0847 -0.26723,0.15082 -0.46302,0.15082 -0.10583,0 -0.26723,-0.0609 -0.47096,-0.12171 -0.19844,-0.0609 -0.43392,-0.12171 -0.69321,-0.12171 -0.74612,0 -1.52135,0.43392 -1.52135,1.34673 0,0.71437 0.29633,1.01335 1.68275,1.7436 0.89694,0.47096 1.1721,0.72232 1.1721,1.24884 0,0.63235 -0.62441,0.95779 -1.1721,0.95779 -0.82286,0 -1.43934,-0.74613 -1.55311,-1.52136 h -0.18256 c 0.0159,0.31221 0.0159,1.56898 0,1.88648 0.10583,-0.11377 0.22754,-0.24341 0.39688,-0.24341 0.23548,0 0.82285,0.24341 1.43139,0.24341 0.88371,0 1.67481,-0.64558 1.67481,-1.56633 -0.005,-0.93398 -0.6297,-1.31498 -1.38906,-1.69598 z m 40.70086,-2.30717 c -0.74613,0.037 -3.88938,0.037 -4.56671,0 -0.0159,0.34132 -0.037,0.98955 -0.10583,1.44463 h 0.18256 c 0,-0.0106 0.003,-0.0212 0.003,-0.0317 v -1.04775 h 1.81505 v 4.45823 c 0.0159,0.39687 -0.0847,0.47889 -0.42598,0.4736 h -0.18257 v 0.18257 c 0.34132,-0.0238 1.651,-0.0238 1.99496,0 v -0.18257 h -0.18256 c -0.34131,0.008 -0.44185,-0.0767 -0.42598,-0.4736 v -4.45823 h 1.65365 v 1.08215 h 0.19579 c -0.008,-0.11378 -0.0159,-0.21961 -0.0159,-0.33603 0,-0.27252 0.0132,-0.64558 0.0609,-1.11125 z m -16.9254,0 c -0.74612,0.037 -3.88937,0.037 -4.56671,0 -0.0159,0.34132 -0.037,0.98955 -0.10583,1.44463 h 0.18256 c 0,-0.0106 0.003,-0.0212 0.003,-0.0317 v -1.04775 h 1.81504 v 4.45823 c 0.0159,0.39687 -0.0847,0.47889 -0.42598,0.4736 h -0.18256 v 0.18257 c 0.34131,-0.0238 1.651,-0.0238 1.99496,0 v -0.18257 h -0.18257 c -0.34131,0.008 -0.44185,-0.0767 -0.42598,-0.4736 v -4.45823 h 1.65365 v 1.08215 h 0.19579 c -0.008,-0.11378 -0.0159,-0.21961 -0.0159,-0.33603 0,-0.27252 0.0159,-0.64558 0.0608,-1.11125 z m -13.98058,0 c -0.74613,0.037 -3.88938,0.037 -4.56671,0 -0.0159,0.34132 -0.037,0.98955 -0.10583,1.44463 h 0.18256 c 0,-0.0106 0.003,-0.0212 0.003,-0.0317 v -1.04775 h 1.81505 v 4.45823 c 0.0159,0.39687 -0.0847,0.47889 -0.42598,0.4736 h -0.18257 v 0.18257 c 0.34132,-0.0238 1.651,-0.0238 1.99496,0 v -0.18257 h -0.18256 c -0.34131,0.008 -0.44185,-0.0767 -0.42598,-0.4736 v -4.45823 h 1.65365 v 1.08215 h 0.19579 c -0.008,-0.11378 -0.0159,-0.21961 -0.0159,-0.33603 0,-0.27252 0.0159,-0.64558 0.0609,-1.11125 z"
         id="path6006"
         style="fill:#ffffff;stroke-width:0.264583" /><path
         d="m -504.20459,-231.92951 c -1.78594,0 -4.53232,1.70656 -4.53232,6.0034 0,3.15912 2.03994,6.82625 5.41338,6.82625 2.19604,0 4.31535,-1.55046 4.31535,-6.49288 0.003,-2.66964 -1.42875,-6.33677 -5.19641,-6.33677 z m 12.25814,8.21796 h 4.59052 l -2.23572,-5.80496 z"
         fill="none"
         id="path6008"
         style="stroke-width:0.264583" /><path
         d="m -503.87122,-232.63595 c -4.07987,0 -7.02204,3.25702 -7.02204,7.29721 0,4.31536 2.92365,7.29721 7.02204,7.29721 4.0984,0 7.02204,-2.98185 7.02204,-7.29721 0.003,-4.04019 -2.94216,-7.29721 -7.02204,-7.29721 z m 0.55034,13.53609 c -3.37344,0 -5.41338,-3.66713 -5.41338,-6.82625 0,-4.29684 2.74638,-6.0034 4.53231,-6.0034 3.76767,0 5.19907,3.66713 5.19907,6.33677 -0.003,4.94242 -2.12196,6.49288 -4.318,6.49288 z m 28.08552,-13.30061 c -1.03982,0 -5.02179,0.0582 -6.2574,0 v 0.66411 h 0.47096 c 0.11112,0 0.20902,0.003 0.29898,0.0106 h 0.79904 v 12.75556 h -0.96308 c -0.045,0.003 -0.0847,0.005 -0.13494,0.005 h -0.47096 v 0.68792 c 1.02129,-0.0582 4.76779,0 5.63033,0 5.41338,0 8.23913,-3.09827 8.23913,-7.1411 0,-4.55084 -3.21733,-6.98236 -7.61206,-6.98236 z m -0.96044,13.41702 c -0.13758,0 -0.26988,-0.003 -0.39158,-0.008 h -1.3335 v -1.00807 -11.14689 -0.54504 h 0.95514 c 0.0529,-0.003 0.10054,-0.005 0.1614,-0.005 0.0714,0 0.13758,0.003 0.20902,0.005 h 0.35719 v 0.008 c 5.40279,0.24871 6.33941,4.09311 6.33941,6.61723 0,5.06413 -3.33639,6.08277 -6.29708,6.08277 z m -53.85859,-6.92414 v -0.0397 c 2.19605,-0.45244 3.09828,-1.52929 3.09828,-3.33375 0,-1.00013 -0.56886,-3.02154 -3.96346,-3.02154 0,0 -5.70707,-0.0794 -5.94254,-0.0979 v 0.62177 h 1.56633 v 1.00542 c 0,0.0212 0.003,0.037 0.003,0.0608 v 10.75003 c 0,0.0212 -0.003,0.037 -0.003,0.0582 v 0.92075 h -1.56633 v 0.70644 c 0.45243,-0.0582 5.86581,-0.0979 5.86581,-0.0979 1.2356,0 4.92389,-0.48948 4.92389,-3.90261 0,-2.43417 -1.84414,-3.4925 -3.98198,-3.63008 z m -3.23585,-5.43454 v -0.37042 h 1.03717 c 2.13783,0 3.13796,0.84402 3.13796,2.92364 0,2.21457 -1.44198,2.67494 -3.27819,2.72257 v 0.003 h -0.17727 c -0.0582,0 -0.11642,0.003 -0.17463,0.003 -0.082,0 -0.14552,0 -0.20637,-0.003 h -0.34132 v -0.30956 -4.96887 z m 1.65894,12.37456 -0.045,0.003 c -0.0212,0 -0.0423,0.003 -0.0635,0.003 -0.0609,0 -0.12965,0 -0.19844,-0.003 h -1.35202 v -0.8837 -5.45042 -0.16933 h 0.2884 c 0.0794,-0.005 0.17727,-0.005 0.29898,-0.005 0.10318,0 0.20108,0.005 0.30162,0.005 h 0.0106 c 2.7358,0.0661 4.15925,1.016 4.15925,3.66183 0.003,1.80975 -1.34408,2.80723 -3.39989,2.83898 z m 7.10935,4.81806 v -0.17992 c -0.26723,0.0238 -1.30175,0.0238 -1.56633,0 v 0.17992 h 0.62442 v 3.8444 h -0.0159 l -3.24114,-4.02432 c -0.21432,0.0159 -1.05834,0.0159 -1.27,0 v 0.18257 h 0.17462 c 0.13758,0 0.1905,0.045 0.29633,0.15875 l 0.22755,0.25135 v 4.70165 h -0.62442 v 0.18256 c 0.26723,-0.0238 1.30175,-0.0238 1.56633,0 v -0.18256 h -0.62177 v -0.32544 c -0.003,-0.0318 -0.003,-0.0662 -0.003,-0.10054 v -3.89731 h 0.0159 l 3.44752,4.24656 c 0.24342,0.30427 0.2884,0.34925 0.32808,0.34925 0.0371,0 0.0371,-0.0847 0.0371,-0.22754 v -4.7334 c 0,-0.0291 0,-0.0582 0.003,-0.0873 v -0.34396 h 0.62177 z m 20.78832,0.46038 v -0.45773 h 0.60854 v -0.17992 c -0.34132,0.0238 -1.651,0.0238 -1.99496,0 v 0.17992 h 0.60854 v 5.11439 h -0.60854 v 0.18257 c 0.34396,-0.0238 1.651,-0.0238 1.99496,0 v -0.18257 h -0.60854 v -0.45508 -4.18571 z m -30.60701,0 v -0.45773 h 0.60855 v -0.17992 c -0.34132,0.0238 -1.651,0.0238 -1.99496,0 v 0.17992 h 0.60854 v 5.11439 h -0.60854 v 0.18257 c 0.34131,-0.0238 1.651,-0.0238 1.99496,0 v -0.18257 h -0.60855 v -0.45508 -4.18571 z m 48.03776,-0.45244 c 0.0265,-0.003 0.0529,-0.005 0.082,-0.005 h 0.17462 v -0.18257 c -0.2196,0.0238 -1.27794,0.0238 -1.57427,0 v 0.18257 h 0.21431 c 0.0317,0 0.0556,0.003 0.082,0.005 h 0.32809 v 3.54806 c 0,1.00542 -0.61648,1.37848 -1.44463,1.37848 -1.00541,0 -1.47637,-0.61648 -1.47637,-1.59015 v -2.86808 c 0,-0.0159 0.003,-0.0291 0.003,-0.0423 v -0.42334 h 0.30427 c 0.0371,-0.003 0.0767,-0.005 0.12171,-0.005 h 0.18257 v -0.18256 c -0.29634,0.0238 -1.651,0.0238 -1.99496,0 v 0.18256 h 0.18256 c 0.045,0 0.0847,0.003 0.12171,0.005 h 0.30427 v 3.52425 c 0,1.26471 0.57944,1.85738 1.81769,1.85738 1.73566,0 2.24631,-0.70644 2.24631,-2.04788 v -2.9157 -0.42069 z m 16.11312,3.98198 c -0.28046,0.80962 -0.65881,0.98425 -1.25677,1.01335 v 0.005 h -1.47373 v -2.33627 h 0.72231 c 0.64559,0 0.94457,0.0159 0.99748,0.67734 h 0.18257 c -0.0238,-0.28046 -0.0238,-1.45257 0,-1.67482 h -0.18257 l -0.045,0.23548 c -0.0688,0.35719 -0.21166,0.48684 -0.762,0.48684 h -0.91281 v -2.20663 c 0.18256,-0.0159 0.41804,-0.0238 0.71438,-0.0238 0.95779,0 1.48431,0.0159 1.62983,0.92869 h 0.18256 c -0.0529,-0.41011 -0.09,-0.83609 -0.09,-1.24884 -0.20637,0.0238 -3.14325,0.0238 -3.82058,0 v 0.17992 h 0.60854 v 5.10646 h -0.30162 c -0.037,0.003 -0.0767,0.005 -0.12171,0.005 h -0.18256 v 0.18256 c 0.71437,-0.0238 3.40783,-0.0238 3.96345,0 0,-0.12964 0.27517,-1.12712 0.34132,-1.33879 h -0.19315 z m -12.98046,-8.80534 -0.9181,-2.10079 0.003,0.003 -4.68312,-11.61256 c -0.0582,-0.15611 -0.11642,-0.23548 -0.19579,-0.23548 -0.0979,0 -0.13759,0.0979 -0.19579,0.23548 l -4.94242,11.86656 c -0.10848,0.25664 -0.20108,0.47625 -0.29369,0.68262 l -0.60325,1.16682 -0.84666,-0.008 c -0.0344,0.003 -0.0635,0.008 -0.10055,0.008 v 0.68262 c 0.55034,-0.0582 2.92365,-0.0582 3.56923,0 v -0.68262 h -0.11641 l -1.43934,-0.005 0.45244,-0.97102 c 0.0317,-0.0953 0.0688,-0.19579 0.11642,-0.30691 l 0.0635,-0.16404 0.003,0.003 1.05834,-2.60085 h 5.15937 l 1.03981,2.68816 c 0.0371,0.0952 0.0767,0.1958 0.11377,0.29898 l 0.50536,1.05304 -1.06627,-0.003 c -0.127,0.008 -0.25136,0.008 -0.35719,0.008 v 0.68262 c 0.76465,-0.0582 3.88408,-0.0582 4.66725,0 v -0.68262 c -0.0661,0 -0.127,-0.003 -0.18521,-0.0106 z m -8.77623,-4.74662 2.3548,-5.80761 2.23572,5.80761 z m -20.97881,4.72546 -0.56885,-0.74084 c -0.0476,-0.0556 -0.0953,-0.11641 -0.14288,-0.17991 l -2.80458,-3.62744 a 7.4027773,7.4027773 0 0 0 -1.15623,-1.1774 c 2.35479,-0.48947 3.51102,-2.02141 3.51102,-3.84439 0,-3.04006 -2.33363,-3.8444 -4.90273,-3.8444 -0.90223,0 -4.76779,0.0582 -5.64885,0 v 0.66146 h 1.57427 v 1.51342 h -0.005 v 11.25008 h -1.56898 v 0.69586 c 0.8837,-0.0582 4.25714,-0.0582 5.1382,0 v -0.69057 h -0.47095 c -0.0132,0 -0.0212,0 -0.0344,-0.003 h -1.06098 v -0.89694 c 0,-0.0344 -0.003,-0.0609 -0.003,-0.0979 v -4.35504 c 1.62718,0 1.66687,0.11642 2.39447,1.05834 l 3.82588,4.9821 c 0.51065,-0.0582 2.64848,-0.0582 3.17765,0 v -0.68527 z m -7.22577,-5.92138 a 11.482917,11.482917 0 0 1 -0.92075,-0.0397 v -5.03503 h -0.005 v -1.7092 h 0.48683 c 0.0714,-0.003 0.15081,-0.005 0.24342,-0.005 0.0503,0 0.0926,0.003 0.14287,0.005 h 0.0265 c 3.50573,0.0556 3.93171,1.8071 3.93171,3.50572 0,1.25942 -0.52917,3.27819 -3.90525,3.27819 z"
         id="path6010"
         style="fill:#f9f9f9;stroke-width:0.264583" /></g></g></svg>
